<mxfile host="app.diagrams.net" modified="2023-03-22T13:02:55.835Z" agent="5.0 (Windows)" etag="qvJDU1HNMX4yCDN-7CX9" version="21.0.10" type="github">
  <diagram id="C5RBs43oDa-KdzZeNtuy" name="Page-1">
    <mxGraphModel dx="1687" dy="920" grid="1" gridSize="10" guides="1" tooltips="1" connect="1" arrows="1" fold="1" page="1" pageScale="1" pageWidth="827" pageHeight="1169" math="0" shadow="0">
      <root>
        <mxCell id="WIyWlLk6GJQsqaUBKTNV-0" />
        <mxCell id="WIyWlLk6GJQsqaUBKTNV-1" parent="WIyWlLk6GJQsqaUBKTNV-0" />
        <mxCell id="GK1SvA3_I_9h7vLinBqQ-1" style="edgeStyle=orthogonalEdgeStyle;rounded=0;orthogonalLoop=1;jettySize=auto;html=1;" edge="1" parent="WIyWlLk6GJQsqaUBKTNV-1" source="GK1SvA3_I_9h7vLinBqQ-0">
          <mxGeometry relative="1" as="geometry">
            <mxPoint x="404" y="290" as="targetPoint" />
          </mxGeometry>
        </mxCell>
        <mxCell id="GK1SvA3_I_9h7vLinBqQ-0" value="Start " style="ellipse;whiteSpace=wrap;html=1;" vertex="1" parent="WIyWlLk6GJQsqaUBKTNV-1">
          <mxGeometry x="344" y="180" width="120" height="50" as="geometry" />
        </mxCell>
        <mxCell id="GK1SvA3_I_9h7vLinBqQ-3" style="edgeStyle=orthogonalEdgeStyle;rounded=0;orthogonalLoop=1;jettySize=auto;html=1;" edge="1" parent="WIyWlLk6GJQsqaUBKTNV-1" source="GK1SvA3_I_9h7vLinBqQ-2">
          <mxGeometry relative="1" as="geometry">
            <mxPoint x="404" y="410" as="targetPoint" />
          </mxGeometry>
        </mxCell>
        <mxCell id="GK1SvA3_I_9h7vLinBqQ-2" value="wczytaj n" style="rounded=0;whiteSpace=wrap;html=1;" vertex="1" parent="WIyWlLk6GJQsqaUBKTNV-1">
          <mxGeometry x="344" y="290" width="120" height="60" as="geometry" />
        </mxCell>
        <mxCell id="GK1SvA3_I_9h7vLinBqQ-5" style="edgeStyle=orthogonalEdgeStyle;rounded=0;orthogonalLoop=1;jettySize=auto;html=1;" edge="1" parent="WIyWlLk6GJQsqaUBKTNV-1" source="GK1SvA3_I_9h7vLinBqQ-4">
          <mxGeometry relative="1" as="geometry">
            <mxPoint x="404" y="520" as="targetPoint" />
          </mxGeometry>
        </mxCell>
        <mxCell id="GK1SvA3_I_9h7vLinBqQ-4" value="&lt;div&gt;wynik = 0 &lt;br&gt;&lt;/div&gt;&lt;div&gt;1=0 &lt;br&gt;&lt;/div&gt;" style="rounded=0;whiteSpace=wrap;html=1;" vertex="1" parent="WIyWlLk6GJQsqaUBKTNV-1">
          <mxGeometry x="344" y="410" width="120" height="60" as="geometry" />
        </mxCell>
        <mxCell id="GK1SvA3_I_9h7vLinBqQ-7" style="edgeStyle=orthogonalEdgeStyle;rounded=0;orthogonalLoop=1;jettySize=auto;html=1;" edge="1" parent="WIyWlLk6GJQsqaUBKTNV-1" source="GK1SvA3_I_9h7vLinBqQ-6">
          <mxGeometry relative="1" as="geometry">
            <mxPoint x="404" y="650" as="targetPoint" />
          </mxGeometry>
        </mxCell>
        <mxCell id="GK1SvA3_I_9h7vLinBqQ-14" style="edgeStyle=orthogonalEdgeStyle;rounded=0;orthogonalLoop=1;jettySize=auto;html=1;exitX=0;exitY=0.5;exitDx=0;exitDy=0;" edge="1" parent="WIyWlLk6GJQsqaUBKTNV-1" source="GK1SvA3_I_9h7vLinBqQ-6">
          <mxGeometry relative="1" as="geometry">
            <mxPoint x="270" y="559.8888888888889" as="targetPoint" />
          </mxGeometry>
        </mxCell>
        <mxCell id="GK1SvA3_I_9h7vLinBqQ-6" value="1&amp;gt;n?" style="rhombus;whiteSpace=wrap;html=1;" vertex="1" parent="WIyWlLk6GJQsqaUBKTNV-1">
          <mxGeometry x="314" y="520" width="180" height="80" as="geometry" />
        </mxCell>
        <mxCell id="GK1SvA3_I_9h7vLinBqQ-8" value="tak" style="text;html=1;align=center;verticalAlign=middle;resizable=0;points=[];autosize=1;strokeColor=none;fillColor=none;" vertex="1" parent="WIyWlLk6GJQsqaUBKTNV-1">
          <mxGeometry x="414" y="605" width="40" height="30" as="geometry" />
        </mxCell>
        <mxCell id="GK1SvA3_I_9h7vLinBqQ-11" style="edgeStyle=orthogonalEdgeStyle;rounded=0;orthogonalLoop=1;jettySize=auto;html=1;" edge="1" parent="WIyWlLk6GJQsqaUBKTNV-1" source="GK1SvA3_I_9h7vLinBqQ-10">
          <mxGeometry relative="1" as="geometry">
            <mxPoint x="404" y="760" as="targetPoint" />
          </mxGeometry>
        </mxCell>
        <mxCell id="GK1SvA3_I_9h7vLinBqQ-10" value="wczytaj a " style="whiteSpace=wrap;html=1;" vertex="1" parent="WIyWlLk6GJQsqaUBKTNV-1">
          <mxGeometry x="344" y="650" width="120" height="60" as="geometry" />
        </mxCell>
        <mxCell id="GK1SvA3_I_9h7vLinBqQ-13" style="edgeStyle=orthogonalEdgeStyle;rounded=0;orthogonalLoop=1;jettySize=auto;html=1;entryX=1;entryY=0.5;entryDx=0;entryDy=0;" edge="1" parent="WIyWlLk6GJQsqaUBKTNV-1" source="GK1SvA3_I_9h7vLinBqQ-12" target="GK1SvA3_I_9h7vLinBqQ-6">
          <mxGeometry relative="1" as="geometry">
            <mxPoint x="524" y="790" as="targetPoint" />
            <Array as="points">
              <mxPoint x="514" y="790" />
              <mxPoint x="514" y="560" />
            </Array>
          </mxGeometry>
        </mxCell>
        <mxCell id="GK1SvA3_I_9h7vLinBqQ-12" value="&lt;div&gt;wynik=wynik +a &lt;br&gt;&lt;/div&gt;&lt;div&gt;1=1+1&lt;br&gt;&lt;/div&gt;" style="whiteSpace=wrap;html=1;" vertex="1" parent="WIyWlLk6GJQsqaUBKTNV-1">
          <mxGeometry x="344" y="760" width="120" height="60" as="geometry" />
        </mxCell>
        <mxCell id="GK1SvA3_I_9h7vLinBqQ-16" style="edgeStyle=orthogonalEdgeStyle;rounded=0;orthogonalLoop=1;jettySize=auto;html=1;" edge="1" parent="WIyWlLk6GJQsqaUBKTNV-1" source="GK1SvA3_I_9h7vLinBqQ-15">
          <mxGeometry relative="1" as="geometry">
            <mxPoint x="210" y="640" as="targetPoint" />
          </mxGeometry>
        </mxCell>
        <mxCell id="GK1SvA3_I_9h7vLinBqQ-15" value="&lt;div&gt;wynik=wynik/ n &lt;br&gt;&lt;/div&gt;&lt;div&gt;wypisz wynik&lt;br&gt;&lt;/div&gt;" style="whiteSpace=wrap;html=1;" vertex="1" parent="WIyWlLk6GJQsqaUBKTNV-1">
          <mxGeometry x="150" y="530" width="120" height="60" as="geometry" />
        </mxCell>
        <mxCell id="GK1SvA3_I_9h7vLinBqQ-17" value="stop" style="ellipse;whiteSpace=wrap;html=1;" vertex="1" parent="WIyWlLk6GJQsqaUBKTNV-1">
          <mxGeometry x="145" y="640" width="130" height="40" as="geometry" />
        </mxCell>
      </root>
    </mxGraphModel>
  </diagram>
</mxfile>
